<?xml version="1.0" encoding="iso-8859-1"?>
<!-- Uploaded to: SVG Repo, www.svgrepo.com, Generator: SVG Repo Mixer Tools -->
<svg version="1.1" id="Layer_1" xmlns="http://www.w3.org/2000/svg" xmlns:xlink="http://www.w3.org/1999/xlink" 
	 viewBox="0 0 429.613 429.613" xml:space="preserve">
<g>
	<path style="fill:#808080;" d="M332.321,340.22v89.39H97.291v-89.39c0-39.62,28.4-72.6,65.95-79.7c4.91-0.93,9.99-1.42,15.17-1.42
		h72.79c5.18,0,10.26,0.49,15.17,1.42C303.921,267.62,332.321,300.6,332.321,340.22z"/>
	<rect x="97.291" y="390.933" style="fill:#FFD3AE;" width="40.5" height="38.68"/>
	<rect x="291.821" y="390.933" style="fill:#FFD3AE;" width="40.5" height="38.68"/>
	<g>
		<g>
			<circle style="fill:#E5B591;" cx="134.231" cy="145.613" r="27.89"/>
			<circle style="fill:#E5B591;" cx="295.367" cy="145.613" r="27.89"/>
		</g>
	</g>
	<path style="fill:#E5B591;" d="M258.371,236.433v24.06c-12.86,7.29-27.73,11.45-43.57,11.45s-30.7-4.16-43.56-11.45v-24.06
		L258.371,236.433L258.371,236.433z"/>
	<path style="fill:#FFD3AE;" d="M303.298,94.113v74c0,3.38-0.19,6.71-0.56,9.99c-2.94,26.19-17.31,48.91-38,63.08
		c-0.19,0.14-0.39,0.27-0.58,0.4c-14.1,9.49-31.08,15.03-49.36,15.03s-35.26-5.54-49.36-15.03c-0.19-0.13-0.39-0.26-0.58-0.4
		c-20.69-14.17-35.06-36.89-38-63.08c-0.37-3.28-0.56-6.61-0.56-9.99v-74c0-48.88,39.62-88.5,88.5-88.5
		c24.44,0,46.57,9.91,62.58,25.92S303.298,69.673,303.298,94.113z"/>
	<g>
		<path style="fill:#E5B591;" d="M167.668,144.946h35.044c6.522,0,11.81,5.287,11.81,11.81v21.123c0,5.092,4.128,9.22,9.22,9.22
			h6.748l-2.943,1.044c-7.666,2.72-16.214,0.773-21.946-4.999L167.668,144.946z"/>
	</g>
	<g>
		<path style="fill:#333333;" d="M180.799,166.05c-1.58,0-3.13-0.64-4.24-1.75c-1.12-1.12-1.76-2.67-1.76-4.25s0.64-3.12,1.76-4.24
			c1.39-1.39,3.46-2.03,5.41-1.64c0.39,0.08,0.76,0.19,1.13,0.34c0.36,0.15,0.71,0.34,1.03,0.55c0.33,0.22,0.64,0.47,0.91,0.75
			c0.28,0.28,0.53,0.58,0.75,0.91s0.4,0.68,0.55,1.04c0.15,0.36,0.27,0.74,0.34,1.12c0.08,0.39,0.12,0.78,0.12,1.17
			s-0.04,0.79-0.12,1.18c-0.07,0.38-0.19,0.76-0.34,1.12s-0.33,0.71-0.55,1.03c-0.22,0.33-0.47,0.64-0.75,0.92
			C183.929,165.41,182.379,166.05,180.799,166.05z"/>
		<path style="fill:#333333;" d="M248.799,166.05c-0.39,0-0.79-0.04-1.17-0.11c-0.38-0.08-0.76-0.2-1.12-0.35
			c-0.37-0.15-0.71-0.33-1.04-0.55c-0.33-0.22-0.64-0.47-0.91-0.74c-0.28-0.28-0.53-0.59-0.75-0.92c-0.22-0.32-0.4-0.67-0.55-1.03
			c-0.15-0.36-0.27-0.74-0.34-1.12c-0.08-0.39-0.12-0.79-0.12-1.18s0.04-0.78,0.12-1.17c0.07-0.38,0.19-0.76,0.34-1.12
			s0.33-0.71,0.55-1.04c0.22-0.33,0.47-0.63,0.75-0.91c0.27-0.28,0.58-0.53,0.91-0.75c0.33-0.21,0.67-0.4,1.04-0.55
			c0.36-0.15,0.74-0.26,1.12-0.34c1.95-0.39,4.02,0.25,5.41,1.64c0.28,0.28,0.53,0.58,0.75,0.91s0.4,0.68,0.55,1.04
			c0.15,0.36,0.27,0.74,0.34,1.12c0.08,0.39,0.12,0.78,0.12,1.17s-0.04,0.79-0.12,1.18c-0.07,0.38-0.19,0.76-0.34,1.12
			s-0.33,0.71-0.55,1.03c-0.22,0.33-0.47,0.64-0.75,0.92C251.929,165.41,250.379,166.05,248.799,166.05z"/>
		<path style="fill:#333333;" d="M191.737,147.946h-21.875c-3.087,0-5.59-2.503-5.59-5.59l0,0c0-3.087,2.503-5.59,5.59-5.59h21.875
			c3.087,0,5.59,2.503,5.59,5.59l0,0C197.327,145.444,194.824,147.946,191.737,147.946z"/>
		<path style="fill:#333333;" d="M259.737,147.946h-21.875c-3.087,0-5.59-2.503-5.59-5.59l0,0c0-3.087,2.503-5.59,5.59-5.59h21.875
			c3.087,0,5.59,2.503,5.59,5.59l0,0C265.327,145.444,262.824,147.946,259.737,147.946z"/>
	</g>
	<path style="fill:#FFFFFF;" d="M240.031,199.61c0,2.98-0.52,5.83-1.48,8.49c-0.45,1.28-1.01,2.51-1.65,3.68
		c-4.3,7.78-12.58,13.05-22.1,13.05c-9.53,0-17.81-5.27-22.11-13.05c-0.65-1.17-1.21-2.4-1.66-3.68c-0.96-2.66-1.47-5.51-1.47-8.49
		H240.031z"/>
	<path style="fill:#333333;" d="M238.551,208.1c-0.45,1.28-1.01,2.51-1.65,3.68c-4.3,7.78-12.58,13.05-22.1,13.05
		c-9.53,0-17.81-5.27-22.11-13.05c-0.65-1.17-1.21-2.4-1.66-3.68H238.551z"/>
	<g>
		<path style="fill:#666666;" d="M214.81,270.443l-20.53,34.71l-7.639,12.92l-34.076-54.499c-0.7-1.119-0.227-2.593,0.989-3.106
			c2.439-1.027,5.457-2.116,8.091-3.019c3.708-1.271,7.789-0.833,11.141,1.2C185.153,266.151,199.502,270.443,214.81,270.443z"/>
		<path style="fill:#666666;" d="M277.046,263.584l-34.067,54.49l-7.639-12.92l-20.53-34.71c15.305,0,29.646-4.291,42.009-11.79
			c3.355-2.035,7.439-2.473,11.15-1.198c2.633,0.905,5.65,1.995,8.088,3.023C277.274,260.991,277.746,262.465,277.046,263.584z"/>
	</g>
	<rect x="208.586" y="270.443" style="fill:#666666;" width="12.44" height="73.84"/>
	<rect x="97.291" y="379.083" style="fill:#666666;" width="40.5" height="11.85"/>
	<rect x="291.821" y="379.083" style="fill:#666666;" width="40.5" height="11.85"/>
	<rect x="243.154" y="353.1" style="fill:#666666;" width="43.641" height="11.85"/>
	<rect x="251.737" y="335.617" style="fill:#FF5050;" width="32" height="17.484"/>
	<rect x="247.404" y="340.283" style="fill:#FFDD4D;" width="32" height="12.817"/>
	<path style="fill:#808080;" d="M142.458,93.283v68.67c0,4.46-1.81,8.5-4.73,11.43c-2.8,2.8-6.62,4.58-10.87,4.72
		c-0.37-3.28-0.56-6.61-0.56-9.99v-65.83L142.458,93.283z"/>
	<path style="fill:#808080;" d="M303.298,102.283v65.83c0,3.38-0.19,6.71-0.56,9.99c-4.25-0.14-8.07-1.92-10.87-4.72
		c-2.92-2.93-4.73-6.97-4.73-11.43v-59.67C287.138,102.283,303.298,102.283,303.298,102.283z"/>
	<path style="fill:#666666;" d="M214.799,5.613c0,0-29.451-14.166-59.323,5.522c-29.334,19.334-41.681,70.481-29.177,119.815
		c0,0,10.162-42.667,44.162-43.333c21.34-0.418,58,21.333,78.667-14c0,0,18.342,59.333,54.171,62.667
		c0,0,16.496-83.333-23.171-119.333C247.404-12.749,214.799,5.613,214.799,5.613z"/>
</g>
</svg>